<svg xmlns="http://www.w3.org/2000/svg" width="40" height="40" fill="rgb(19.215686%,40.784314%,8.235294%)" xmlns:v="https://vecta.io/nano"><path d="M1.891 5.398c-.398.203-.742.594-.867 1-.063.219-.086 2.945-.086 9.938v9.641l-.219.141c-.117.086-.32.297-.445.469l-.234.328v2.602l.234.336c.148.211.391.422.656.555.367.195.5.219 1.141.219h.734l.125.453c.375 1.273 1.406 2.523 2.594 3.117 1.625.813 3.586.758 5.078-.148 1.031-.625 1.828-1.609 2.219-2.75l.219-.633 3.305-.016 3.477-.109c.359-.187.383-.797.039-1.055-.102-.086-.852-.102-3.422-.109h-3.297l-.086-.594c-.07-.5-.211-.937-.531-1.648-.031-.078 1.492-.102 7.477-.102l7.477.094c-.32.719-.461 1.156-.531 1.656l-.086.594H24.26c-2.508 0-2.602.008-2.805.164-.266.211-.289.672-.039.898.156.141.352.148 2.852.188l2.695.039.219.633c.523 1.516 1.68 2.672 3.227 3.211.766.273 1.977.336 2.828.141 1.789-.391 3.336-1.836 3.836-3.578l.125-.445h.734c.641 0 .773-.023 1.141-.219.266-.133.508-.344.656-.555l.234-.336v-2.602l-.234-.328c-.125-.172-.328-.383-.445-.469l-.219-.141V23.15c0-3.508.031-3.383-1.055-4.437l-.812-.875c-.047-.094-.422-1.961-.828-4.141l-.977-4.453c-.273-.555-.633-.898-1.25-1.187l-.43-.203-3.336-.023-3.344-.023v-.523c0-.703-.109-1.062-.453-1.437-.594-.656.227-.609-9.953-.609H7.586l-.156.203c-.266.336-.164.797.203.961.133.063 2.711.086 9.008.086h8.82l.156.203c.164.211.164.219.164 9.648v9.445H11.469l-.32-.281c-.469-.398-1.477-.875-2.164-1.016-1.117-.234-2.719 0-3.57.531l-.258.156v-.82c0-1.312-.281-1.937-1.047-2.289-.336-.156-.523-.187-1.156-.187h-.766v-7.523l.109-7.68c.102-.141.242-.148 1.844-.187 1.703-.039 1.734-.039 1.883-.227.203-.25.195-.641-.031-.852-.18-.164-.242-.172-1.977-.172-1.664 0-1.812.008-2.125.164zm31.766 3.828c.188.094.422.289.523.453.164.242.43 1.195.43 1.539 0 .094-.367.109-2.398.109-2.172 0-2.437.016-2.719.148-.367.172-.695.5-.812.813-.055.141-.086 1.195-.086 2.906l.086 2.906c.117.313.445.641.813.813.289.133.57.148 3.68.148h3.359l.563.523c.305.297.594.633.641.75.039.125.078.711.078 1.313v1.086h-.781c-.867 0-1.219.102-1.586.453-.359.336-.531.758-.578 1.391l-.047.578-.242-.148c-.844-.523-2.453-.758-3.562-.523-.687.141-1.695.617-2.164 1.016-.32.281-.328.281-1.07.281h-.75V9.063h3.141l3.484.164zm1.664 5.734l.5 2.594.047.258h-2.922c-2.164 0-2.937-.023-3.008-.094-.133-.133-.133-4.914 0-5.047.07-.07.703-.094 2.516-.078l2.43.023zM3.68 23.273c.18.141.188.195.211 1.328l.023 1.18H2.188v-2.656h.656c.531 0 .688.031.836.148zm34.133 1.609v.898h-1.719v-.695c0-.578.023-.719.164-.898.148-.195.195-.203.859-.203h.695zm-29.125.828c2.125.438 3.563 2.641 3.078 4.711-.43 1.82-2 3.086-3.836 3.094-1.109 0-1.961-.359-2.773-1.172S3.984 30.68 3.984 29.57c.008-2.453 2.313-4.352 4.703-3.859zm24.273.031c1.781.422 3.047 2.008 3.055 3.828 0 1.109-.359 1.961-1.172 2.773s-1.664 1.172-2.773 1.172c-2.453-.008-4.352-2.312-3.859-4.703.141-.68.578-1.484 1.094-2 .984-.984 2.336-1.383 3.656-1.07zM3.156 27.469c-.219.5-.422 1.281-.422 1.648v.258h-.586c-.477 0-.617-.031-.734-.148-.203-.203-.266-.578-.227-1.266.023-.492.055-.578.242-.742.203-.172.289-.187 1.07-.187h.852zm35.414-.25c.188.164.219.25.242.742.039.688-.023 1.063-.227 1.266-.117.117-.258.148-.734.148h-.586v-.258c0-.367-.203-1.148-.422-1.648l-.195-.437h.852c.781 0 .867.016 1.07.188zm-31.25-.031c-1.367.344-2.148 1.766-1.734 3.164.102.375.219.547.617.945s.57.516.945.617c1.219.359 2.445-.164 2.984-1.273.297-.609.305-1.5.023-2.086A2.72 2.72 0 0 0 8.96 27.36a2.97 2.97 0 0 0-1.641-.172zm1.117 1.344c.453.234.734.734.664 1.195-.125.844-1.094 1.328-1.766.875-.758-.508-.82-1.437-.141-1.953.445-.328.758-.359 1.242-.117zm0 0"/><path d="M31.523 27.18a2.64 2.64 0 0 0-1.68 1.375c-.25.531-.266 1.469-.023 2 .523 1.156 1.781 1.727 3.031 1.359.375-.102.547-.219.945-.617s.516-.57.617-.945c.359-1.234-.203-2.516-1.336-3.016-.383-.172-1.195-.25-1.555-.156zm1.273 1.469c.688.523.625 1.445-.133 1.953-.672.453-1.641-.031-1.766-.875-.109-.711.617-1.437 1.328-1.328a1.48 1.48 0 0 1 .57.25zM16.523 11.461c-.398.211-3.234 2.453-3.391 2.672-.086.117-.18.305-.203.422l-.055.211h-2.133c-2.039 0-2.133.008-2.266.156a.73.73 0 0 0 0 .859c.133.148.227.156 2.242.156h2.094v1.328h-1.719c-1.617 0-1.727.008-1.875.156-.211.211-.211.648 0 .859.148.148.258.156 1.875.156h1.719v.289c0 .453.281.945.688 1.203l.359.227h3.383c3.742 0 3.703.008 4.141-.492.391-.445.43-.711.398-2.93-.031-2.633.102-2.352-1.922-3.93l-1.812-1.336c-.344-.18-1.195-.187-1.523-.008zm2.484 2.289l1.453 1.234c.125.258.117 3.703-.008 3.828-.062.063-.469.094-1.328.094H17.89V17.82c0-1.086 0-1.094-.203-1.25-.117-.094-.289-.164-.391-.164-.539 0-.656.266-.656 1.523v.977h-1.242c-1.062 0-1.25-.016-1.289-.125-.023-.07-.047-.945-.047-1.945 0-1.617.016-1.836.141-1.977.172-.203 2.836-2.25 2.984-2.297.18-.062.344.047 1.82 1.188zm0 0"/></svg>