<svg xmlns="http://www.w3.org/2000/svg" width="40" height="40" fill="rgb(19.215686%,40.784314%,8.235294%)" xmlns:v="https://vecta.io/nano"><path d="M21.25.25c-.602.313-.625.383-.898 2.406-.258 1.891-.633 3.461-.992 4.18-.828 1.617-2.727 3.336-5.016 4.539l-.937.492-.352-.211-.359-.211H9.609l-3.398.156c-.391.195-.82.625-1.016 1.016-.148.305-.156.531-.18 6.859L5 26.023l.164.391a2.52 2.52 0 0 0 1.297 1.195c.305.102.797.125 3.07.125 2.984 0 3.211-.031 3.75-.461l.297-.234.461.227a6.68 6.68 0 0 0 1.102.391c.625.156.82.156 9.094.141l8.461-.023.383-.195c1.43-.727 1.969-2.547 1.141-3.859-.125-.195-.195-.359-.156-.359.133 0 .789-.641.992-.961a3.01 3.01 0 0 0 .305-.773c.164-.625.055-1.398-.281-1.992l-.227-.406.273-.172c.398-.242.867-.875 1.008-1.336.273-.922.063-1.977-.516-2.602-.273-.297-.289-.344-.18-.437.203-.164.539-.711.688-1.109.211-.562.148-1.516-.141-2.07-.273-.531-.758-1-1.297-1.258l-.43-.203-5.023-.023-4.977-.156c.406-.961.703-2.266.836-3.641.305-3.234-.734-5.484-2.789-6.031-.531-.148-.656-.141-1.055.063zm1.367 1.453c.648.453 1.039 1.234 1.211 2.438.109.734.094 1.422-.047 2.508-.164 1.266-.414 2.117-.898 3.094-.32.641-.383.844-.344 1.039.109.492-.156.469 5.852.469l5.813.164c.984.477 1.07 1.867.156 2.469-.32.219-.344.219-1.891.258l-1.703.109c-.07.031-.172.18-.219.32-.109.32.063.719.336.781.094.016.844.047 1.656.055l1.484.023.328.227c.594.398.813 1.211.5 1.828-.359.695-.656.797-2.422.797-1.57 0-1.758.039-1.883.438-.094.289.047.672.273.766.07.023.555.047 1.078.047s1.086.039 1.242.078c.742.211 1.195.984 1 1.711-.086.336-.445.805-.734.969-.102.063-.68.109-1.578.133-1.625.047-1.75.094-1.75.625s.094.578 1.227.625 1.352.125 1.773.648c.211.266.242.359.242.789 0 .617-.273 1.078-.766 1.305-.312.141-.641.148-8.492.148-8.875 0-8.516.016-9.469-.437l-.453-.219-.016-6.477-.023-6.477.617-.312c2.5-1.258 4.797-3.328 5.711-5.148.516-1.008.836-2.297 1.133-4.445.258-1.914.203-1.719.492-1.633a2.14 2.14 0 0 1 .563.289zM12.461 12.781l.195.125v13.242l-.164.148c-.156.141-.336.148-2.812.172-2.906.023-2.938.016-3.266-.445-.164-.227-.164-.273-.164-6.453l.125-6.438c.281-.469.289-.469 3.219-.477l2.867.125zm-3.703 9.141c-1.352.68-1.297 2.688.086 3.266.617.266 1.5.117 1.961-.328.922-.867.711-2.359-.406-2.93a1.72 1.72 0 0 0-1.641-.008zm1.047 1.094c.172.07.359.461.297.633-.094.266-.281.414-.531.414-.383 0-.664-.406-.492-.727.164-.32.422-.43.727-.32zm-4.469 6.007c-.125.086-.312.57-.734 1.875l-.57 1.758h-1.86c-1.758 0-1.867.008-2.016.156-.102.102-.156.258-.156.461 0 .367-.039.328 1.703 1.57l1.266.984c0 .055-.227.797-.508 1.656l-.508 1.828c0 .414.406.688.789.539.102-.039.797-.516 1.547-1.055l1.43-.984c.031 0 .703.461 1.484 1.031 1.477 1.078 1.734 1.188 2.055.922.328-.266.305-.414-.273-2.203l-.516-1.773c.023-.039.656-.508 1.398-1.047l1.461-1.117c.18-.203.133-.656-.07-.82-.164-.133-.344-.148-2.031-.148H7.383l-.547-1.703c-.352-1.102-.609-1.758-.719-1.875-.203-.203-.539-.227-.781-.055zm1.141 4.664c.141.172.211.18 1.25.203l1.109.031-.867.617c-.609.445-.875.688-.914.836-.031.141.055.508.273 1.18l.305.992c-.008.016-.375-.242-.812-.555-.437-.32-.883-.602-.992-.633-.234-.055-.375.016-1.219.633l-.75.531c-.047.023.055-.398.227-.953.211-.664.297-1.062.258-1.203-.031-.141-.305-.383-.883-.812l-.844-.609 1.07-.039c.875-.031 1.086-.062 1.219-.18.086-.078.266-.5.406-.93.422-1.344.359-1.32.711-.242.172.523.375 1.031.453 1.133zm13.109-4.609c-.117.117-.359.766-.719 1.875l-.539 1.703h-1.852c-1.656 0-1.867.016-2.023.141-.195.156-.25.633-.086.82.055.07.711.563 1.453 1.109l1.406 1.055c.023.039-.187.805-.477 1.695l-.516 1.852c.008.398.43.672.813.523.102-.039.789-.516 1.531-1.055L20 37.813c.039 0 .68.445 1.422.984l1.531 1.055c.383.148.805-.125.813-.523 0-.125-.227-.953-.516-1.852l-.477-1.695c.023-.039.656-.516 1.406-1.055l1.453-1.109c.164-.187.109-.664-.086-.82-.156-.125-.367-.141-2.023-.141h-1.852l-.539-1.703c-.586-1.82-.711-2.047-1.133-2.047a.62.62 0 0 0-.414.172zm.766 3.578c.172.523.375 1.008.453 1.078.125.109.344.141 1.234.156l1.086.031-.859.617c-.609.438-.875.688-.906.828-.039.133.023.438.164.875.406 1.227.43 1.344.328 1.281-.055-.031-.391-.273-.758-.539-.828-.602-.984-.68-1.211-.625-.094.023-.508.281-.906.578l-.828.586c-.102.063-.07-.062.328-1.281.141-.437.203-.742.164-.875-.031-.141-.297-.391-.906-.828l-.859-.617 1.086-.031c.891-.016 1.109-.047 1.234-.156.078-.07.281-.555.453-1.078.164-.516.328-.937.352-.937s.188.422.352.938zm13.531-3.578c-.109.117-.367.773-.719 1.875l-.547 1.703h-1.844c-1.687 0-1.867.016-2.031.148-.203.164-.25.617-.07.82.055.07.711.57 1.461 1.117l1.398 1.047c.023.039-.195.781-.477 1.648l-.531 1.844a.57.57 0 0 0 .594.594c.219 0 .531-.195 1.68-1.031l1.484-1.031c.039 0 .68.445 1.43.984l1.547 1.055c.383.148.789-.125.789-.539 0-.148-.227-.969-.508-1.828l-.508-1.656c.008-.047.578-.492 1.266-.984C40.039 33.602 40 33.641 40 33.273c0-.203-.055-.359-.156-.461-.148-.148-.258-.156-2.016-.156h-1.859l-.57-1.758c-.594-1.859-.672-1.992-1.125-1.992-.125 0-.289.078-.391.172zm.766 3.578c.156.492.352.969.438 1.055.133.141.289.164 1.227.195l1.07.039-.844.609c-.578.43-.852.672-.883.813-.039.141.047.539.258 1.203.172.555.273.977.227.953l-.75-.531c-.844-.617-.984-.687-1.219-.633-.109.031-.555.313-.992.633l-.812.555c-.008-.008.125-.453.305-.992.219-.672.305-1.039.273-1.18-.039-.148-.305-.391-.914-.836l-.867-.617 1.109-.031c1.328-.031 1.266.023 1.688-1.312.164-.508.32-.898.344-.875.031.031.18.461.344.953zm0 0"/></svg>